<svg width="25" height="24" viewBox="0 0 25 24" fill="none" xmlns="http://www.w3.org/2000/svg">
<path d="M24.0563 7.38132C24.0433 6.4346 23.8602 5.49729 23.5151 4.61132C23.2159 3.86401 22.7589 3.18532 22.1733 2.61861C21.5877 2.0519 20.8864 1.60963 20.1142 1.32007C19.2104 0.991765 18.2557 0.814245 17.2906 0.795068C16.048 0.741318 15.654 0.726318 12.4998 0.726318C9.34554 0.726318 8.94124 0.726318 7.7077 0.795068C6.74303 0.814386 5.78874 0.991903 4.88541 1.32007C4.11307 1.60943 3.41165 2.05162 2.82602 2.61836C2.24039 3.18509 1.78346 3.86389 1.48445 4.61132C1.14453 5.48523 0.961486 6.40896 0.943244 7.34257C0.887702 8.54632 0.870911 8.92757 0.870911 11.9801C0.870911 15.0326 0.870911 15.4226 0.943244 16.6176C0.962619 17.5526 1.14474 18.4751 1.48445 19.3513C1.78396 20.0985 2.24123 20.777 2.82706 21.3435C3.41288 21.91 4.11437 22.352 4.8867 22.6413C5.78755 22.9828 6.74202 23.173 7.70899 23.2038C8.95287 23.2576 9.34683 23.2738 12.5011 23.2738C15.6553 23.2738 16.0596 23.2738 17.2932 23.2038C18.2582 23.1854 19.213 23.0083 20.1167 22.6801C20.8888 22.3902 21.5899 21.9478 22.1755 21.3811C22.761 20.8144 23.2181 20.1359 23.5177 19.3888C23.8574 18.5138 24.0395 17.5913 24.0589 16.6551C24.1145 15.4526 24.1312 15.0713 24.1312 12.0176C24.1287 8.96507 24.1287 8.57757 24.0563 7.38132ZM12.492 17.7526C9.19312 17.7526 6.52066 15.1663 6.52066 11.9738C6.52066 8.78132 9.19312 6.19507 12.492 6.19507C14.0757 6.19507 15.5946 6.8039 16.7144 7.88762C17.8343 8.97135 18.4634 10.4412 18.4634 11.9738C18.4634 13.5064 17.8343 14.9763 16.7144 16.06C15.5946 17.1437 14.0757 17.7526 12.492 17.7526ZM18.7011 7.32882C18.5182 7.32898 18.337 7.29424 18.168 7.22658C17.999 7.15892 17.8454 7.05967 17.7161 6.93451C17.5868 6.80935 17.4842 6.66074 17.4143 6.49718C17.3444 6.33362 17.3085 6.15832 17.3087 5.98132C17.3087 5.80444 17.3447 5.6293 17.4146 5.46589C17.4845 5.30248 17.5871 5.154 17.7163 5.02893C17.8455 4.90386 17.999 4.80465 18.1678 4.73697C18.3367 4.66928 18.5177 4.63444 18.7004 4.63444C18.8832 4.63444 19.0642 4.66928 19.233 4.73697C19.4019 4.80465 19.5553 4.90386 19.6846 5.02893C19.8138 5.154 19.9163 5.30248 19.9863 5.46589C20.0562 5.6293 20.0922 5.80444 20.0922 5.98132C20.0922 6.72632 19.4696 7.32882 18.7011 7.32882Z" fill="white"/>
</svg>
