<svg width="27" height="23" viewBox="0 0 27 23" fill="none" xmlns="http://www.w3.org/2000/svg">
<path d="M26.3881 2.99842C25.9639 3.18654 25.5278 3.34532 25.0823 3.47423C25.6098 2.87761 26.012 2.17561 26.2575 1.40742C26.3126 1.23523 26.2555 1.04675 26.114 0.934136C25.9726 0.821433 25.7762 0.807933 25.6206 0.900169C24.6743 1.46142 23.6533 1.86477 22.5828 2.10062C21.5045 1.04693 20.0399 0.447266 18.5258 0.447266C15.3298 0.447266 12.7296 3.04736 12.7296 6.24329C12.7296 6.495 12.7455 6.74532 12.7771 6.99215C8.8111 6.64394 5.12403 4.69462 2.59213 1.58884C2.5019 1.47814 2.36289 1.41848 2.22058 1.42989C2.07817 1.44104 1.95023 1.52134 1.87829 1.64476C1.36476 2.52592 1.09328 3.53371 1.09328 4.5591C1.09328 5.9557 1.59191 7.28079 2.47272 8.31619C2.2049 8.22344 1.945 8.10751 1.69695 7.96981C1.56378 7.89569 1.40126 7.89682 1.26896 7.97268C1.13657 8.04855 1.05357 8.18807 1.05008 8.34058C1.04947 8.36627 1.04947 8.39197 1.04947 8.41801C1.04947 10.5027 2.17145 12.3795 3.88682 13.4025C3.73946 13.3877 3.59218 13.3664 3.44585 13.3385C3.295 13.3096 3.13988 13.3625 3.03815 13.4775C2.93625 13.5925 2.90254 13.7528 2.94949 13.8991C3.58442 15.8814 5.21914 17.3395 7.19537 17.784C5.5563 18.8107 3.68189 19.3484 1.7142 19.3484C1.30362 19.3484 0.890696 19.3243 0.486567 19.2764C0.285809 19.2526 0.0938478 19.3711 0.0254768 19.562C-0.0428942 19.753 0.0295703 19.966 0.200367 20.0755C2.72818 21.6963 5.65106 22.5529 8.65285 22.5529C14.554 22.5529 18.2456 19.7702 20.3033 17.4357C22.8691 14.5249 24.3407 10.672 24.3407 6.86508C24.3407 6.70604 24.3383 6.54543 24.3334 6.38535C25.3457 5.62264 26.2173 4.69959 26.9265 3.63866C27.0343 3.47753 27.0226 3.26458 26.8978 3.11626C26.7732 2.96784 26.5654 2.91985 26.3881 2.99842Z" fill="white"/>
</svg>
