<svg width="27" height="19" viewBox="0 0 27 19" fill="none" xmlns="http://www.w3.org/2000/svg">
<path d="M25.9476 1.63042C24.973 0.471854 23.1736 -0.000732422 19.7371 -0.000732422H7.26265C3.74751 -0.000732422 1.91761 0.502339 0.946655 1.7358C0 2.93844 0 4.71042 0 7.16289V11.8373C0 16.5885 1.1232 19.0008 7.26265 19.0008H19.7372C22.7173 19.0008 24.3686 18.5838 25.437 17.5614C26.5326 16.5129 27 14.801 27 11.8373V7.16289C27 4.57655 26.9268 2.79412 25.9476 1.63042ZM17.3341 10.1454L11.6695 13.1059C11.5428 13.1721 11.4044 13.205 11.2661 13.205C11.1095 13.205 10.9532 13.1628 10.8148 13.079C10.5542 12.9211 10.3951 12.6387 10.3951 12.334V6.43197C10.3951 6.12783 10.5538 5.84564 10.8138 5.68764C11.074 5.52965 11.3976 5.51885 11.6675 5.65908L17.3321 8.60051C17.6203 8.75014 17.8013 9.04766 17.8017 9.37227C17.8021 9.69714 17.6219 9.9951 17.3341 10.1454Z" fill="white"/>
</svg>
